{"title":"Sleepy Hollow S03E02 HDTV x264-KILLERS[rartv]","uid":12575961,"size":324846421,"categoryP":"video","categoryS":"tv_shows","magnet":"?xt=urn:btih:a92de909888be9524ae9256f3f98a58b1caa91a0&amp;dn=Sleepy+Hollow+S03E02+HDTV+x264-KILLERS%5Brartv%5D&amp;tr=udp%3A%2F%2Ftracker.leechers-paradise.org%3A6969&amp;tr=udp%3A%2F%2Fzer0day.ch%3A1337&amp;tr=udp%3A%2F%2Fopen.demonii.com%3A1337&amp;tr=udp%3A%2F%2Ftracker.coppersurfer.tk%3A6969&amp;tr=udp%3A%2F%2Fexodus.desync.com%3A6969","seeders":1,"leechers":0,"uploader":"TheRival","files":3,"time":1444899845,"description":"Screens: \nhttp://extraimago.com/image/9Qd\r\n\r\nVideo\r\nID : 2\r\nFormat : AVC\r\nFormat/Info : Advanced Video Codec\r\nFormat profile :   \r\nFormat settings, CABAC : Yes\r\nFormat settings, ReFrames : 5 frames\r\nCodec ID : avc1\r\nCodec ID/Info : Advanced Video Coding\r\nDuration : 43mn 11s\r\nSource duration : 43mn 11s\r\nBit rate : 851 Kbps\r\nMaximum bit rate : 6 391 Kbps\r\nWidth : 720 pixels\r\nHeight : 404 pixels\r\nDisplay aspect ratio : 16:9\r\nFrame rate mode : Constant\r\nFrame rate : 23.976 fps\r\nColor space : YUV\r\nChroma subsampling : 4:2:0\r\nBit depth : 8 bits\r\nScan type : Progressive\r\nBits/(Pixel*Frame) : 0.122\r\nStream size : 263 MiB (85%)\r\nSource stream size : 263 MiB (85%)\r\nWriting library : x264 core 148 r2597 e86f3a1\r\nEncoding settings : cabac=1 / ref=5 / deblock=1:0:0 / analyse=0x3:0x113 / me=umh / subme=8 / psy=1 / psy_rd=1.00:0.00 / mixed_ref=1 / me_range=16 / chroma_me=1 / trellis=1 / 8x8dct=1 / cqm=0 / deadzone=21,11 / fast_pskip=1 / chroma_qp_offset=-2 / threads=13 / lookahead_threads=2 / sliced_threads=0 / nr=0 / decimate=1 / interlaced=0 / bluray_compat=0 / constrained_intra=0 / bframes=3 / b_pyramid=2 / b_adapt=2 / b_bias=0 / direct=3 / weightb=1 / open_gop=0 / weightp=2 / keyint=250 / keyint_min=23 / scenecut=40 / intra_refresh=0 / rc_lookahead=50 / rc=crf / mbtree=1 / crf=19.0 / qcomp=0.60 / qpmin=0 / qpmax=69 / qpstep=4 / ip_ratio=1.40 / aq=1:1.00\r\nEncoded date : UTC 2015-10-09 01:27:48\r\nTagged date : UTC 2015-10-09 02:00:52\r\nColor range : Limited\r\nMatrix coefficients : BT.709\r\n\r\nAudio\r\nID : 1\r\nFormat : AAC\r\nFormat/Info : Advanced Audio Codec\r\nFormat profile : LC\r\nCodec ID : 40\r\nDuration : 43mn 11s\r\nBit rate mode : Variable\r\nBit rate : 148 Kbps\r\nMaximum bit rate : 177 Kbps\r\nChannel(s) : 2 channels\r\nChannel positions : Front: L R\r\nSampling rate : 48.0 KHz\r\nCompression mode : Lossy\r\nStream size : 45.6 MiB (15%)\r\nEncoded date : UTC 2015-10-09 02:00:52\r\nTagged date : UTC 2015-10-09 02:00:52","torrent":{"xt":"urn:btih:a92de909888be9524ae9256f3f98a58b1caa91a0","amp;dn":"Sleepy+Hollow+S03E02+HDTV+x264-KILLERS%5Brartv%5D","amp;tr":["udp%3A%2F%2Ftracker.leechers-paradise.org%3A6969","udp%3A%2F%2Fzer0day.ch%3A1337","udp%3A%2F%2Fopen.demonii.com%3A1337","udp%3A%2F%2Ftracker.coppersurfer.tk%3A6969","udp%3A%2F%2Fexodus.desync.com%3A6969"],"infoHash":"a92de909888be9524ae9256f3f98a58b1caa91a0","infoHashBuffer":{"type":"Buffer","data":[169,45,233,9,136,139,233,82,74,233,37,111,63,152,165,139,28,170,145,160]},"announce":[],"urlList":[]}}